<svg width="100" height="29" viewBox="0 0 100 29" fill="none" xmlns="http://www.w3.org/2000/svg">
<path d="M96.3148 29H4.18519C2.12148 29 0.5 27.405 0.5 25.375V3.625C0.5 1.595 2.12148 0 4.18519 0H96.3148C98.3785 0 100 1.595 100 3.625V25.375C100 27.405 98.3785 29 96.3148 29Z" fill="black"/>
<path d="M96.3148 0.58C98.01 0.58 99.4104 1.9575 99.4104 3.625V25.375C99.4104 27.0425 98.01 28.42 96.3148 28.42H4.18519C2.49 28.42 1.08963 27.0425 1.08963 25.375V3.625C1.08963 1.9575 2.49 0.58 4.18519 0.58H96.3148ZM96.3148 0H4.18519C2.12148 0 0.5 1.6675 0.5 3.625V25.375C0.5 27.405 2.12148 29 4.18519 29H96.3148C98.3785 29 100 27.405 100 25.375V3.625C100 1.6675 98.3785 0 96.3148 0Z" fill="#A6A6A6"/>
<path d="M35.4354 7.395C35.4354 7.975 35.288 8.4825 34.9195 8.845C34.4773 9.28 33.9613 9.4975 33.298 9.4975C32.6347 9.4975 32.1187 9.28 31.6765 8.845C31.2343 8.41 31.0132 7.9025 31.0132 7.25C31.0132 6.5975 31.2343 6.09 31.6765 5.655C32.1187 5.22 32.6347 5.0025 33.298 5.0025C33.5928 5.0025 33.8876 5.075 34.1824 5.22C34.4773 5.365 34.6984 5.51 34.8458 5.7275L34.4773 6.09C34.1824 5.7275 33.8139 5.5825 33.298 5.5825C32.8558 5.5825 32.4136 5.7275 32.1187 6.09C31.7502 6.38 31.6028 6.815 31.6028 7.3225C31.6028 7.83 31.7502 8.265 32.1187 8.555C32.4873 8.845 32.8558 9.0625 33.298 9.0625C33.8139 9.0625 34.1824 8.9175 34.551 8.555C34.7721 8.3375 34.9195 8.0475 34.9195 7.685H33.298V7.105H35.4354V7.395ZM38.8258 5.5825H36.8358V6.96H38.6784V7.4675H36.8358V8.845H38.8258V9.425H36.2461V5.075H38.8258V5.5825ZM41.258 9.425H40.6684V5.5825H39.4154V5.075H42.511V5.5825H41.258V9.425ZM44.6484 9.425V5.075H45.238V9.425H44.6484ZM47.7439 9.425H47.1543V5.5825H45.9013V5.075H48.9232V5.5825H47.6702V9.425H47.7439ZM54.7458 8.845C54.3036 9.28 53.7876 9.4975 53.1243 9.4975C52.461 9.4975 51.945 9.28 51.5028 8.845C51.0606 8.41 50.8395 7.9025 50.8395 7.25C50.8395 6.5975 51.0606 6.09 51.5028 5.655C51.945 5.22 52.461 5.0025 53.1243 5.0025C53.7876 5.0025 54.3036 5.22 54.7458 5.655C55.188 6.09 55.4091 6.5975 55.4091 7.25C55.4091 7.9025 55.188 8.41 54.7458 8.845ZM51.945 8.4825C52.2399 8.7725 52.6821 8.99 53.1243 8.99C53.5665 8.99 54.0087 8.845 54.3036 8.4825C54.5984 8.1925 54.8195 7.7575 54.8195 7.25C54.8195 6.7425 54.6721 6.3075 54.3036 6.0175C54.0087 5.7275 53.5665 5.51 53.1243 5.51C52.6821 5.51 52.2399 5.655 51.945 6.0175C51.6502 6.3075 51.4291 6.7425 51.4291 7.25C51.4291 7.7575 51.5765 8.1925 51.945 8.4825ZM56.2198 9.425V5.075H56.8832L59.0206 8.4825V5.075H59.6102V9.425H59.0206L56.7358 5.8725V9.425H56.2198Z" fill="white" stroke="white" stroke-width="0.16" stroke-miterlimit="10"/>
<path d="M50.692 15.805C48.9231 15.805 47.5227 17.11 47.5227 18.9225C47.5227 20.6625 48.9231 22.04 50.692 22.04C52.4609 22.04 53.8613 20.735 53.8613 18.9225C53.8613 17.0375 52.4609 15.805 50.692 15.805ZM50.692 20.735C49.7338 20.735 48.9231 19.9375 48.9231 18.85C48.9231 17.7625 49.7338 16.965 50.692 16.965C51.6501 16.965 52.4609 17.69 52.4609 18.85C52.4609 19.9375 51.6501 20.735 50.692 20.735ZM43.8375 15.805C42.0687 15.805 40.6683 17.11 40.6683 18.9225C40.6683 20.6625 42.0687 22.04 43.8375 22.04C45.6064 22.04 47.0068 20.735 47.0068 18.9225C47.0068 17.0375 45.6064 15.805 43.8375 15.805ZM43.8375 20.735C42.8794 20.735 42.0687 19.9375 42.0687 18.85C42.0687 17.7625 42.8794 16.965 43.8375 16.965C44.7957 16.965 45.6064 17.69 45.6064 18.85C45.6064 19.9375 44.7957 20.735 43.8375 20.735ZM35.6564 16.7475V18.0525H38.8257C38.752 18.7775 38.4572 19.3575 38.0887 19.72C37.6464 20.155 36.9094 20.6625 35.6564 20.6625C33.6664 20.6625 32.1924 19.14 32.1924 17.1825C32.1924 15.225 33.7401 13.7025 35.6564 13.7025C36.6883 13.7025 37.499 14.1375 38.0887 14.645L39.0468 13.7025C38.2361 12.9775 37.2042 12.3975 35.7301 12.3975C33.0768 12.3975 30.792 14.5725 30.792 17.1825C30.792 19.7925 33.0768 21.9675 35.7301 21.9675C37.2042 21.9675 38.2361 21.5325 39.1205 20.59C40.005 19.72 40.2998 18.4875 40.2998 17.545C40.2998 17.255 40.2998 16.965 40.2261 16.7475H35.6564ZM69.1179 17.7625C68.8231 17.0375 68.0861 15.805 66.4646 15.805C64.8431 15.805 63.5164 17.0375 63.5164 18.9225C63.5164 20.6625 64.8431 22.04 66.612 22.04C68.0124 22.04 68.8968 21.17 69.1916 20.6625L68.1598 19.9375C67.7913 20.445 67.349 20.8075 66.612 20.8075C65.875 20.8075 65.4327 20.5175 65.0642 19.865L69.2653 18.125L69.1179 17.7625ZM64.8431 18.7775C64.8431 17.6175 65.8013 16.965 66.4646 16.965C66.9805 16.965 67.4964 17.255 67.6438 17.6175L64.8431 18.7775ZM61.379 21.75H62.7794V12.6875H61.379V21.75ZM59.1679 16.4575C58.7994 16.095 58.2098 15.7325 57.4727 15.7325C55.925 15.7325 54.4509 17.11 54.4509 18.85C54.4509 20.59 55.8513 21.895 57.4727 21.895C58.2098 21.895 58.7994 21.5325 59.0942 21.17H59.1679V21.605C59.1679 22.765 58.5046 23.4175 57.4727 23.4175C56.662 23.4175 56.0724 22.8375 55.925 22.33L54.7457 22.8375C55.1142 23.635 55.9987 24.65 57.5464 24.65C59.1679 24.65 60.4946 23.7075 60.4946 21.46V15.95H59.1679V16.4575ZM57.5464 20.735C56.5883 20.735 55.7775 19.9375 55.7775 18.85C55.7775 17.7625 56.5883 16.965 57.5464 16.965C58.5046 16.965 59.2416 17.7625 59.2416 18.85C59.2416 19.9375 58.5046 20.735 57.5464 20.735ZM75.5301 12.6875H72.2135V21.75H73.6138V18.3425H75.5301C77.0779 18.3425 78.552 17.255 78.552 15.515C78.552 13.775 77.0779 12.6875 75.5301 12.6875ZM75.6038 17.0375H73.6138V13.92H75.6038C76.6357 13.92 77.2253 14.79 77.2253 15.4425C77.1516 16.24 76.562 17.0375 75.6038 17.0375ZM84.0798 15.7325C83.0479 15.7325 82.0161 16.1675 81.6475 17.11L82.9005 17.6175C83.1953 17.11 83.6376 16.965 84.1535 16.965C84.8905 16.965 85.5538 17.4 85.6276 18.125V18.1975C85.4064 18.0525 84.8168 17.835 84.2272 17.835C82.9005 17.835 81.5738 18.56 81.5738 19.865C81.5738 21.0975 82.6794 21.895 83.8587 21.895C84.8168 21.895 85.259 21.46 85.6276 21.025H85.7013V21.75H87.0279V18.27C86.8805 16.675 85.6276 15.7325 84.0798 15.7325ZM83.9324 20.735C83.4901 20.735 82.8268 20.5175 82.8268 19.9375C82.8268 19.2125 83.6376 18.995 84.3009 18.995C84.8905 18.995 85.1853 19.14 85.5538 19.285C85.4064 20.155 84.6694 20.735 83.9324 20.735ZM91.6713 15.95L90.1235 19.865H90.0498L88.4283 15.95H86.9542L89.3864 21.46L87.9861 24.505H89.3864L93.1453 15.95H91.6713ZM79.289 21.75H80.6894V12.6875H79.289V21.75Z" fill="white"/>
<path d="M8.16493 5.43738C7.94382 5.65488 7.87012 6.01738 7.87012 6.45238V22.4749C7.87012 22.9099 8.01752 23.2724 8.23864 23.4899L8.31234 23.5624L17.4516 14.5724V14.4274L8.16493 5.43738Z" fill="url(#paint0_linear_105_150)"/>
<path d="M20.3998 17.6175L17.3779 14.645V14.4275L20.3998 11.455L20.4735 11.5275L24.085 13.5575C25.1168 14.1375 25.1168 15.08 24.085 15.66L20.3998 17.6175Z" fill="url(#paint1_linear_105_150)"/>
<path d="M20.4736 17.5449L17.378 14.4999L8.16504 23.5624C8.53356 23.9249 9.04948 23.9249 9.71282 23.6349L20.4736 17.5449Z" fill="url(#paint2_linear_105_150)"/>
<path d="M20.4736 11.4549L9.71282 5.43742C9.04948 5.07492 8.53356 5.14742 8.16504 5.50992L17.378 14.4999L20.4736 11.4549Z" fill="url(#paint3_linear_105_150)"/>
<path opacity="0.2" d="M20.3999 17.4724L9.71282 23.4174C9.12319 23.7799 8.60726 23.7074 8.23874 23.4174L8.16504 23.4899L8.23874 23.5624C8.60726 23.8524 9.12319 23.9249 9.71282 23.5624L20.3999 17.4724Z" fill="black"/>
<path opacity="0.12" d="M8.16493 23.4174C7.94382 23.1999 7.87012 22.8374 7.87012 22.4024V22.4749C7.87012 22.9099 8.01752 23.2724 8.23864 23.4899V23.4174H8.16493ZM24.0849 15.4424L20.3997 17.4724L20.4735 17.5449L24.0849 15.5149C24.6009 15.2249 24.822 14.8624 24.822 14.4999C24.822 14.8624 24.5272 15.1524 24.0849 15.4424Z" fill="black"/>
<path opacity="0.25" d="M9.71271 5.50999L24.0849 13.5575C24.5272 13.8475 24.822 14.1375 24.822 14.5C24.822 14.1375 24.6009 13.775 24.0849 13.485L9.71271 5.43749C8.68086 4.85749 7.87012 5.29249 7.87012 6.45249V6.52499C7.87012 5.43749 8.68086 4.92999 9.71271 5.50999Z" fill="white"/>
<defs>
<linearGradient id="paint0_linear_105_150" x1="16.5672" y1="6.31463" x2="4.40112" y2="18.6819" gradientUnits="userSpaceOnUse">
<stop stop-color="#00A0FF"/>
<stop offset="0.007" stop-color="#00A1FF"/>
<stop offset="0.26" stop-color="#00BEFF"/>
<stop offset="0.512" stop-color="#00D2FF"/>
<stop offset="0.76" stop-color="#00DFFF"/>
<stop offset="1" stop-color="#00E3FF"/>
</linearGradient>
<linearGradient id="paint1_linear_105_150" x1="25.4367" y1="14.5007" x2="7.60261" y2="14.5007" gradientUnits="userSpaceOnUse">
<stop stop-color="#FFE000"/>
<stop offset="0.409" stop-color="#FFBD00"/>
<stop offset="0.775" stop-color="#FFA500"/>
<stop offset="1" stop-color="#FF9C00"/>
</linearGradient>
<linearGradient id="paint2_linear_105_150" x1="18.7983" y1="16.1645" x2="2.30096" y2="32.9358" gradientUnits="userSpaceOnUse">
<stop stop-color="#FF3A44"/>
<stop offset="1" stop-color="#C31162"/>
</linearGradient>
<linearGradient id="paint3_linear_105_150" x1="5.87801" y1="0.127523" x2="13.2452" y2="7.61702" gradientUnits="userSpaceOnUse">
<stop stop-color="#32A071"/>
<stop offset="0.069" stop-color="#2DA771"/>
<stop offset="0.476" stop-color="#15CF74"/>
<stop offset="0.801" stop-color="#06E775"/>
<stop offset="1" stop-color="#00F076"/>
</linearGradient>
</defs>
</svg>
